<svg id="Layer_1" data-name="Layer 1" xmlns="http://www.w3.org/2000/svg" viewBox="0 0 212.6 48.23"><title>Knowit_logo_black</title><path d="M177.79,7.84a3.92,3.92,0,1,0-3.89-3.91,3.91,3.91,0,0,0,3.89,3.91"/><path d="M35.31,12.28H30.23c-1.6,0-1.8.18-3.62,2L10.42,30.62V5A1.21,1.21,0,0,0,9.08,3.64H1.33A1.2,1.2,0,0,0,0,5V8.42A1.21,1.21,0,0,0,1.33,9.77H4.18V41.4H1.35A1.22,1.22,0,0,0,0,42.74v3.44a1.22,1.22,0,0,0,1.34,1.35H13.19a1.21,1.21,0,0,0,1.37-1.35V42.75a1.22,1.22,0,0,0-1.37-1.35H10.42V38.85l6.07-6.18L27.2,45.76c1.43,1.77,1.43,1.77,3.48,1.77h4.6a1.19,1.19,0,0,0,1.32-1.35V42.75a1.2,1.2,0,0,0-1.32-1.35h-3.8L20.83,28.28l9.73-9.87h4.75a1.15,1.15,0,0,0,1.31-1.26V13.61a1.19,1.19,0,0,0-1.31-1.33"/><path d="M77.09,41.4H74.27V26.33c0-9-5.65-14.78-14.41-14.78a14.19,14.19,0,0,0-10,3.7V13.61a1.2,1.2,0,0,0-1.34-1.31H40.82a1.18,1.18,0,0,0-1.34,1.31v3.46a1.2,1.2,0,0,0,1.34,1.34h2.8v23h-2.8a1.2,1.2,0,0,0-1.34,1.35v3.43a1.2,1.2,0,0,0,1.34,1.35h11.8A1.22,1.22,0,0,0,54,46.18V42.75a1.22,1.22,0,0,0-1.34-1.35H49.81v-14c0-5.77,4-9.94,9.6-9.94,5.41,0,8.68,3.54,8.68,9.44V41.4H65.26a1.21,1.21,0,0,0-1.33,1.35v3.43a1.21,1.21,0,0,0,1.33,1.35H77.09a1.22,1.22,0,0,0,1.34-1.35V42.75a1.22,1.22,0,0,0-1.34-1.35"/><path d="M96.27,11.59A18.07,18.07,0,0,0,78.21,30,17.88,17.88,0,0,0,96.13,48.23a18.07,18.07,0,0,0,18.09-18.41,17.9,17.9,0,0,0-18-18.23m0,30.66c-6.52,0-11.6-5.46-11.6-12.43S89.6,17.61,96.13,17.61,107.79,23.06,107.79,30s-5,12.23-11.52,12.23"/><path d="M166.68,12.3H154.55a1.18,1.18,0,0,0-1.33,1.31v3.48a1.18,1.18,0,0,0,1.33,1.32h2.72L151.48,37.1l-8.17-23.79a1.57,1.57,0,0,0-1.49-1.08h-2.41a1.51,1.51,0,0,0-1.47,1.08l-8.13,23.77-5.75-18.67h2.72a1.19,1.19,0,0,0,1.33-1.32V13.61a1.2,1.2,0,0,0-1.33-1.31H114.52a1.21,1.21,0,0,0-1.36,1.31v3.48a1.21,1.21,0,0,0,1.36,1.32h2.87L127,46.62a1.54,1.54,0,0,0,1.46,1.05h2.62a1.6,1.6,0,0,0,1.48-1.07l8-23.13,8,23.13a1.56,1.56,0,0,0,1.48,1.07h2.62a1.52,1.52,0,0,0,1.45-1.05l9.65-28.21h2.87A1.19,1.19,0,0,0,168,17.09V13.61a1.19,1.19,0,0,0-1.32-1.31"/><path d="M183.83,41.4H181V13.61a1.2,1.2,0,0,0-1.33-1.31h-7.75a1.18,1.18,0,0,0-1.31,1.31v3.48a1.18,1.18,0,0,0,1.31,1.32h2.84v23h-5.12a1.21,1.21,0,0,0-1.34,1.35v3.43a1.21,1.21,0,0,0,1.34,1.35h14.17a1.21,1.21,0,0,0,1.34-1.35V42.75a1.21,1.21,0,0,0-1.34-1.35"/><path d="M211.26,29.61h-3.4A1.21,1.21,0,0,0,206.53,31v6.51a4.42,4.42,0,0,1-4.27,4.59c-3.38,0-4.81-1.4-4.81-4.68v-19h8.2A1.21,1.21,0,0,0,207,17.09V13.61a1.21,1.21,0,0,0-1.36-1.31h-8.2V5a1.21,1.21,0,0,0-1.31-1.36h-3.59A1.2,1.2,0,0,0,191.22,5V12.3h-3.74a1.19,1.19,0,0,0-1.34,1.31v3.48a1.19,1.19,0,0,0,1.34,1.32h3.74v19.3c0,6.31,4.13,10.4,10.5,10.4,6.62,0,10.88-4,10.88-10.08V31a1.21,1.21,0,0,0-1.34-1.35"/></svg>