<svg id="Layer_1" data-name="Layer 1" xmlns="http://www.w3.org/2000/svg" viewBox="0 0 884.1 251.2"><title>Rust Guild</title><path d="M132.1,174.6a49,49,0,1,1,49-49A49.1,49.1,0,0,1,132.1,174.6Zm0-68a19,19,0,1,0,19,19A19,19,0,0,0,132.1,106.6Z"/><rect x="754.1" y="74.6" width="9.2" height="11.23"/><path d="M359.5,92.6A24.2,24.2,0,0,0,345.8,97a29.7,29.7,0,0,0-9.7,11.5V93h-8.7v67.7h9.2v-42a24.9,24.9,0,0,1,9.2-12.7,27.6,27.6,0,0,1,15.4-4.8h.2V92.8h-1.9Z"/><path d="M431.3,149.2V93h-9.2v42.5a27.5,27.5,0,0,1-4,7.6,38.6,38.6,0,0,1-5.6,5.8,25.5,25.5,0,0,1-6.9,3.7,24.8,24.8,0,0,1-7.6,1.3c-10.2,0-15.4-7.7-15.4-22.7V93h-9.2v39.7c0,9.7,1.8,17.1,5.4,22s9.2,7.3,16.5,7.3a32.2,32.2,0,0,0,27.9-15.9V153a7.6,7.6,0,0,0,2,5.7,6.9,6.9,0,0,0,5.2,2.3h1.3l2.6-.3h.1v-8.1h-.2C432.3,152.6,431.3,151.5,431.3,149.2Z"/><path d="M501.1,141.7a13.6,13.6,0,0,0-6.7-12.5,33.9,33.9,0,0,0-8.3-3.6c-3.2-1.1-7.1-2.1-11.4-3.1l-7.6-2a26.2,26.2,0,0,1-5.2-2.2,7.8,7.8,0,0,1-2.9-2.8,9.1,9.1,0,0,1-.9-4.3,11,11,0,0,1,1.3-5.6,10.6,10.6,0,0,1,3.5-3.8,15.9,15.9,0,0,1,5.1-2.3,32.2,32.2,0,0,1,6.4-.7,31.7,31.7,0,0,1,11.1,2,23.1,23.1,0,0,1,9.1,5.7v.2l4.5-5.4h-.1a25.9,25.9,0,0,0-10.2-6.7,39,39,0,0,0-24-1.3,25.4,25.4,0,0,0-8.1,3.9,17.9,17.9,0,0,0-5.5,6.4,20.3,20.3,0,0,0-2,9.1,13.8,13.8,0,0,0,1.4,6.7,11.3,11.3,0,0,0,4.2,4.5A24.7,24.7,0,0,0,462,127c2.8.9,6.2,1.9,10.1,2.8l8.8,2.3a31.8,31.8,0,0,1,6.3,2.5,10.7,10.7,0,0,1,3.7,3.2,7.6,7.6,0,0,1,1.3,4.6,10.4,10.4,0,0,1-4.8,9.2c-3.1,2.2-7.5,3.3-12.8,3.3a34.8,34.8,0,0,1-12.6-2.3,47.3,47.3,0,0,1-11.5-7h-.2l-4.2,6.3h.1a37.3,37.3,0,0,0,13,7.5,45.5,45.5,0,0,0,15.5,2.6c8,0,14.5-1.8,19.3-5.4A18.1,18.1,0,0,0,501.1,141.7Z"/><path d="M519.2,148.4a13.4,13.4,0,0,0,1.2,5.8,12.7,12.7,0,0,0,3.1,4.1,13.5,13.5,0,0,0,4.6,2.4,17,17,0,0,0,5.5.8,28.7,28.7,0,0,0,5.2-.5,24.4,24.4,0,0,0,4.5-1.2,22,22,0,0,0,3.4-1.3l2.3-1h.1l-2.4-7.5h-.3a22.7,22.7,0,0,1-3.5,1.7,16.9,16.9,0,0,1-6.6,1.3,8.8,8.8,0,0,1-5.3-1.7,7,7,0,0,1-2.6-5.4V100.4h15.5V93H528.4V71h-9.2V93h-9.3v7.4h9.3Z"/><path d="M647.5,106.6A45,45,0,0,0,637,96.2a26.6,26.6,0,0,0-15.2-4.4A29,29,0,0,0,609,94.7a31.1,31.1,0,0,0-9.9,7.7,33.6,33.6,0,0,0-6.5,11.2,40.7,40.7,0,0,0-2.2,13.5,34.9,34.9,0,0,0,2.3,12.8,34.4,34.4,0,0,0,6.6,11.1,31.5,31.5,0,0,0,10,7.7,27.1,27.1,0,0,0,12.8,2.9,29.1,29.1,0,0,0,24.5-13.4v7.5a22.5,22.5,0,0,1-1.9,9.4,20.5,20.5,0,0,1-5.2,6.7,24,24,0,0,1-7.6,4,34.8,34.8,0,0,1-9.3,1.3,33.3,33.3,0,0,1-14.1-3,24.4,24.4,0,0,1-10.5-9.4v-.2l-5.7,4.4h0a31.9,31.9,0,0,0,11.6,11.2c4.7,2.8,11.1,4.2,18.8,4.2a44.5,44.5,0,0,0,12.8-1.8,31.4,31.4,0,0,0,10.6-5.5,28.6,28.6,0,0,0,7.1-9,27.7,27.7,0,0,0,2.7-12.5V93h-8.3Zm-22.9,47.3a21.7,21.7,0,0,1-9.8-2.2,26.1,26.1,0,0,1-7.9-5.7,28.4,28.4,0,0,1-5.3-8.5,27.7,27.7,0,0,1-1.9-10.3,30.6,30.6,0,0,1,1.6-9.9,27.1,27.1,0,0,1,4.7-8.7,21.5,21.5,0,0,1,7.5-6.2,20.5,20.5,0,0,1,10-2.4,19.4,19.4,0,0,1,7.1,1.3,25.8,25.8,0,0,1,6.6,3.4,27.6,27.6,0,0,1,5.5,5.3,26.1,26.1,0,0,1,3.9,6.6v20.8a16,16,0,0,1-2.7,6,28.3,28.3,0,0,1-5.1,5.3,29.1,29.1,0,0,1-6.7,3.8A22.1,22.1,0,0,1,624.6,153.9Z"/><path d="M733.3,149.2V93h-9.2v42.6a28.4,28.4,0,0,1-4,7.5,38.6,38.6,0,0,1-5.6,5.8,25.5,25.5,0,0,1-6.9,3.7,24.8,24.8,0,0,1-7.6,1.3c-10.2,0-15.4-7.7-15.4-22.7V93h-9.2v39.7c0,9.7,1.8,17.1,5.4,22s9.2,7.3,16.5,7.3a32.2,32.2,0,0,0,27.9-15.9V153a7.6,7.6,0,0,0,2,5.7,6.9,6.9,0,0,0,5.2,2.3h1.3l2.6-.3h.1v-8.1h-.2C734.3,152.6,733.3,151.5,733.3,149.2Z"/><rect x="754.1" y="93" width="9.2" height="67.77"/><path d="M807.8,151.7l-3.6,1a14.7,14.7,0,0,1-3.3.4,7.4,7.4,0,0,1-5.7-2.1,8.1,8.1,0,0,1-2-5.7V74.6H784v73.7c0,4.1,1.2,7.4,3.5,9.7a13.6,13.6,0,0,0,9.7,3.5,37.8,37.8,0,0,0,6.2-.6,35,35,0,0,0,6.1-1.7h.1l-1.6-7.5Z"/><path d="M883.8,152.6c-1.9,0-2.8-1.1-2.8-3.4V74.6h-9.3v31.9a33.5,33.5,0,0,0-10-10.2,26.4,26.4,0,0,0-15.2-4.5,28.2,28.2,0,0,0-12.4,2.8,30.5,30.5,0,0,0-9.8,7.6,35.7,35.7,0,0,0-6.4,11.3,38.1,38.1,0,0,0-2.4,13.6,37.2,37.2,0,0,0,2.4,13.2,37.8,37.8,0,0,0,6.7,11.1,32.7,32.7,0,0,0,10.3,7.7,29.3,29.3,0,0,0,27.3-1,29.6,29.6,0,0,0,10.6-9.9v5.9a6.5,6.5,0,0,0,2.4,5,8.5,8.5,0,0,0,5.5,2,14.5,14.5,0,0,0,3.2-.4h.2v-8.1Zm-34,1.3a23,23,0,0,1-9.7-2.2,25.7,25.7,0,0,1-7.9-5.8,28.9,28.9,0,0,1-5.3-8.6,27.2,27.2,0,0,1-1.9-10.2,29.4,29.4,0,0,1,1.7-10.1,26.9,26.9,0,0,1,4.8-8.6,23.4,23.4,0,0,1,7.5-6.1,20.4,20.4,0,0,1,9.7-2.3,19.6,19.6,0,0,1,7,1.3,23.4,23.4,0,0,1,6.8,3.6,30.6,30.6,0,0,1,5.5,5.3,21.8,21.8,0,0,1,3.7,6.4v20.8a13.4,13.4,0,0,1-2.7,6.4,24.7,24.7,0,0,1-5.4,5.3,37.3,37.3,0,0,1-6.9,3.5A22,22,0,0,1,849.8,153.9Z"/><path d="M172.9,251.2l-40.8-17.5L91.3,251.2,68.6,213l-43.4-9.8L29.3,159,0,125.6,29.3,92.2,25.2,48l43.4-9.8L91.3,0l40.8,17.6L172.9,0l22.7,38.2L238.9,48l-4.1,44.2,29.4,33.4L234.8,159l4.1,44.2L195.6,213ZM57.5,179.8l30.3,6.8,15.8,26.7L132.1,201l28.5,12.3,15.8-26.7,30.2-6.8-2.8-30.9,20.4-23.3-20.4-23.3,2.8-30.8-30.2-6.9L160.6,38,132.1,50.2,103.6,38,87.8,64.6,57.5,71.5l2.9,30.8L39.9,125.6l20.5,23.3Z"/></svg>
